<!-- Generated by IcoMoon.io -->
<svg version="1.1" xmlns="http://www.w3.org/2000/svg" width="32" height="32" viewBox="0 0 32 32">
<title>chest</title>
<path d="M3.702 16.33l0.152 2.286h8.537c-0.257-0.535-0.391-1.121-0.391-1.714v-0.572z"></path>
<path d="M16.572 15.759c0 0.315-0.256 0.571-0.572 0.571s-0.572-0.256-0.572-0.571c0-0.316 0.256-0.572 0.572-0.572s0.572 0.256 0.572 0.572z"></path>
<path d="M27.688 25.473l0.152-2.286h-23.681l0.152 2.286z"></path>
<path d="M16 19.759c1.577-0.002 2.855-1.28 2.857-2.857v-4h-5.714v4c0.002 1.577 1.28 2.855 2.857 2.857zM16 14.045c0.834-0.002 1.547 0.599 1.689 1.42s-0.331 1.626-1.117 1.903v0.677c0 0.316-0.256 0.571-0.572 0.571s-0.572-0.256-0.572-0.571v-0.677c-0.786-0.277-1.259-1.081-1.117-1.903s0.855-1.422 1.689-1.42z"></path>
<path d="M28.069 19.759h-9.275c-1.551 1.524-4.037 1.524-5.588 0h-9.275l0.153 2.286h23.834z"></path>
<path d="M22.857 3.188h-13.714c-1.289 0-2.547 0.399-3.6 1.143h20.92c-1.055-0.744-2.315-1.144-3.606-1.143z"></path>
<path d="M20 12.902v2.286h8.298c0.317-0.001 0.62 0.13 0.836 0.361s0.328 0.542 0.307 0.858l-0.61 9.143c-0.042 0.6-0.541 1.066-1.143 1.067h-23.376c-0.601-0.002-1.098-0.467-1.14-1.067l-0.61-9.143c-0.021-0.316 0.090-0.626 0.307-0.858s0.52-0.362 0.836-0.361h8.295v-2.286h-11.961l1.029 15.466c0.020 0.301 0.27 0.534 0.571 0.534h28.72c0.302 0 0.552-0.233 0.572-0.534l1.030-15.466z"></path>
<path d="M26.844 3.216c0.547 0.351 1.047 0.771 1.486 1.25 0.038 0.032 0.071 0.069 0.099 0.109 0.932 1.057 1.543 2.359 1.76 3.752v0.003c0.061 0.378 0.093 0.76 0.096 1.143v2.286h1.714v-2.857c-0.004-2.938-2.232-5.396-5.156-5.686z"></path>
<path d="M1.714 9.473c0.003-0.383 0.035-0.765 0.097-1.143v-0.003c0.217-1.393 0.828-2.695 1.76-3.752 0.028-0.041 0.062-0.077 0.099-0.109 0.439-0.479 0.938-0.9 1.486-1.25-2.924 0.29-5.153 2.748-5.157 5.686v2.857h1.714z"></path>
<path d="M28.298 16.33h-8.298v0.572c-0 0.593-0.134 1.179-0.391 1.714h8.537z"></path>
<path d="M4.298 5.473c-0.554 0.671-0.962 1.449-1.2 2.286h25.802c-0.237-0.837-0.644-1.615-1.197-2.286z"></path>
<path d="M29.143 9.473c0-0.193-0.012-0.383-0.029-0.571h-26.228c-0.017 0.188-0.029 0.378-0.029 0.571v2.286h26.286z"></path>
</svg>
