<svg aria-hidden="true" style="position: absolute; width: 0; height: 0; overflow: hidden;" version="1.1" xmlns="http://www.w3.org/2000/svg" xmlns:xlink="http://www.w3.org/1999/xlink">
<defs>
<symbol id="icon-chest" viewBox="0 0 32 32">
<path d="M3.702 16.33l0.152 2.286h8.537c-0.257-0.535-0.391-1.121-0.391-1.714v-0.572z"></path>
<path d="M16.572 15.759c0 0.315-0.256 0.571-0.572 0.571s-0.572-0.256-0.572-0.571c0-0.316 0.256-0.572 0.572-0.572s0.572 0.256 0.572 0.572z"></path>
<path d="M27.688 25.473l0.152-2.286h-23.681l0.152 2.286z"></path>
<path d="M16 19.759c1.577-0.002 2.855-1.28 2.857-2.857v-4h-5.714v4c0.002 1.577 1.28 2.855 2.857 2.857zM16 14.045c0.834-0.002 1.547 0.599 1.689 1.42s-0.331 1.626-1.117 1.903v0.677c0 0.316-0.256 0.571-0.572 0.571s-0.572-0.256-0.572-0.571v-0.677c-0.786-0.277-1.259-1.081-1.117-1.903s0.855-1.422 1.689-1.42z"></path>
<path d="M28.069 19.759h-9.275c-1.551 1.524-4.037 1.524-5.588 0h-9.275l0.153 2.286h23.834z"></path>
<path d="M22.857 3.188h-13.714c-1.289 0-2.547 0.399-3.6 1.143h20.92c-1.055-0.744-2.315-1.144-3.606-1.143z"></path>
<path d="M20 12.902v2.286h8.298c0.317-0.001 0.62 0.13 0.836 0.361s0.328 0.542 0.307 0.858l-0.61 9.143c-0.042 0.6-0.541 1.066-1.143 1.067h-23.376c-0.601-0.002-1.098-0.467-1.14-1.067l-0.61-9.143c-0.021-0.316 0.090-0.626 0.307-0.858s0.52-0.362 0.836-0.361h8.295v-2.286h-11.961l1.029 15.466c0.020 0.301 0.27 0.534 0.571 0.534h28.72c0.302 0 0.552-0.233 0.572-0.534l1.030-15.466z"></path>
<path d="M26.844 3.216c0.547 0.351 1.047 0.771 1.486 1.25 0.038 0.032 0.071 0.069 0.099 0.109 0.932 1.057 1.543 2.359 1.76 3.752v0.003c0.061 0.378 0.093 0.76 0.096 1.143v2.286h1.714v-2.857c-0.004-2.938-2.232-5.396-5.156-5.686z"></path>
<path d="M1.714 9.473c0.003-0.383 0.035-0.765 0.097-1.143v-0.003c0.217-1.393 0.828-2.695 1.76-3.752 0.028-0.041 0.062-0.077 0.099-0.109 0.439-0.479 0.938-0.9 1.486-1.25-2.924 0.29-5.153 2.748-5.157 5.686v2.857h1.714z"></path>
<path d="M28.298 16.33h-8.298v0.572c-0 0.593-0.134 1.179-0.391 1.714h8.537z"></path>
<path d="M4.298 5.473c-0.554 0.671-0.962 1.449-1.2 2.286h25.802c-0.237-0.837-0.644-1.615-1.197-2.286z"></path>
<path d="M29.143 9.473c0-0.193-0.012-0.383-0.029-0.571h-26.228c-0.017 0.188-0.029 0.378-0.029 0.571v2.286h26.286z"></path>
</symbol>
<symbol id="icon-wallet" viewBox="0 0 20 20">
<path d="M16 6h-12.5v-0.5l11-0.88v0.88h1.5v-1.5c0-1.1-0.891-1.872-1.979-1.717l-10.041 1.434c-1.089 0.156-1.98 1.183-1.98 2.283v10c0 1.104 0.895 2 2 2h12c1.104 0 2-0.896 2-2v-8c0-1.104-0.896-2-2-2zM14.5 13.006c-0.828 0-1.5-0.672-1.5-1.5s0.672-1.5 1.5-1.5 1.5 0.672 1.5 1.5-0.672 1.5-1.5 1.5z"></path>
</symbol>
<symbol id="icon-error" viewBox="0 0 24 24">
<path d="M12.984 12.984v-6h-1.969v6h1.969zM12.984 17.016v-2.016h-1.969v2.016h1.969zM12 2.016q4.125 0 7.055 2.93t2.93 7.055-2.93 7.055-7.055 2.93-7.055-2.93-2.93-7.055 2.93-7.055 7.055-2.93z"></path>
</symbol>
<symbol id="icon-playlist_add_check" viewBox="0 0 24 24">
<path d="M21.516 11.484l1.5 1.5-6.984 7.031-4.547-4.5 1.5-1.5 3.047 3zM2.016 15.984v-1.969h7.969v1.969h-7.969zM14.016 6v2.016h-12v-2.016h12zM14.016 9.984v2.016h-12v-2.016h12z"></path>
</symbol>
<symbol id="icon-sentiment_satisfied_alt" viewBox="0 0 24 24">
<path d="M12 17.484q-1.734 0-3.117-0.961t-1.992-2.508h1.641q1.172 1.969 3.469 1.969t3.469-1.969h1.641q-0.609 1.547-1.992 2.508t-3.117 0.961zM12 20.016q3.281 0 5.648-2.367t2.367-5.648-2.367-5.648-5.648-2.367-5.648 2.367-2.367 5.648 2.367 5.648 5.648 2.367zM12 2.016q4.125 0 7.055 2.93t2.93 7.055-2.93 7.055-7.055 2.93-7.055-2.93-2.93-7.055 2.93-7.055 7.055-2.93zM8.484 11.016q-0.609 0-1.055-0.445t-0.445-1.055 0.445-1.055 1.055-0.445 1.055 0.445 0.445 1.055-0.445 1.055-1.055 0.445zM15.516 11.016q-0.609 0-1.055-0.445t-0.445-1.055 0.445-1.055 1.055-0.445 1.055 0.445 0.445 1.055-0.445 1.055-1.055 0.445z"></path>
</symbol>
<symbol id="icon-monetization_on" viewBox="0 0 24 24">
<path d="M13.406 18.094q3.141-0.609 3.141-3.141 0-2.859-4.219-3.938-2.625-0.656-2.625-1.922 0-0.703 0.633-1.172t1.758-0.469q2.109 0 2.203 1.875h1.969q-0.094-2.672-2.859-3.375v-1.969h-2.672v1.969q-1.359 0.281-2.227 1.102t-0.867 2.086q0 2.625 4.172 3.656 2.672 0.609 2.672 2.156 0 0.609-0.539 1.102t-1.852 0.492q-2.484 0-2.672-1.875h-1.969q0.141 2.672 3.281 3.375v1.969h2.672v-1.922zM12 2.016q4.125 0 7.055 2.93t2.93 7.055-2.93 7.055-7.055 2.93-7.055-2.93-2.93-7.055 2.93-7.055 7.055-2.93z"></path>
</symbol>
<symbol id="icon-location_city" viewBox="0 0 24 24">
<path d="M18.984 15v-2.016h-1.969v2.016h1.969zM18.984 18.984v-1.969h-1.969v1.969h1.969zM12.984 6.984v-1.969h-1.969v1.969h1.969zM12.984 11.016v-2.016h-1.969v2.016h1.969zM12.984 15v-2.016h-1.969v2.016h1.969zM12.984 18.984v-1.969h-1.969v1.969h1.969zM6.984 11.016v-2.016h-1.969v2.016h1.969zM6.984 15v-2.016h-1.969v2.016h1.969zM6.984 18.984v-1.969h-1.969v1.969h1.969zM15 11.016h6v9.984h-18v-14.016h6v-1.969l3-3 3 3v6z"></path>
</symbol>
<symbol id="icon-history" viewBox="0 0 24 24">
<path d="M12 8.016h1.5v4.219l3.516 2.109-0.75 1.219-4.266-2.578v-4.969zM12.984 3q3.703 0 6.352 2.625t2.648 6.375-2.648 6.375-6.352 2.625q-1.547 0-3.398-0.773t-2.93-1.852l1.406-1.453q2.063 2.063 4.922 2.063 2.906 0 4.969-2.039t2.063-4.945-2.063-4.945-4.969-2.039-4.945 2.039-2.039 4.945h3l-4.031 4.031-0.094-0.141-3.891-3.891h3q0-3.75 2.648-6.375t6.352-2.625z"></path>
</symbol>
<symbol id="icon-book" viewBox="0 0 32 32">
<path d="M28 4v26h-21c-1.657 0-3-1.343-3-3s1.343-3 3-3h19v-24h-20c-2.2 0-4 1.8-4 4v24c0 2.2 1.8 4 4 4h24v-28h-2z"></path>
<path d="M7.002 26v0c-0.001 0-0.001 0-0.002 0-0.552 0-1 0.448-1 1s0.448 1 1 1c0.001 0 0.001-0 0.002-0v0h18.997v-2h-18.997z"></path>
</symbol>
<symbol id="icon-files-empty" viewBox="0 0 32 32">
<path d="M28.681 11.159c-0.694-0.947-1.662-2.053-2.724-3.116s-2.169-2.030-3.116-2.724c-1.612-1.182-2.393-1.319-2.841-1.319h-11.5c-1.379 0-2.5 1.122-2.5 2.5v23c0 1.378 1.121 2.5 2.5 2.5h19c1.378 0 2.5-1.122 2.5-2.5v-15.5c0-0.448-0.137-1.23-1.319-2.841zM24.543 9.457c0.959 0.959 1.712 1.825 2.268 2.543h-4.811v-4.811c0.718 0.556 1.584 1.309 2.543 2.268v0zM28 29.5c0 0.271-0.229 0.5-0.5 0.5h-19c-0.271 0-0.5-0.229-0.5-0.5v-23c0-0.271 0.229-0.5 0.5-0.5 0 0 11.499-0 11.5 0v7c0 0.552 0.448 1 1 1h7v15.5z"></path>
<path d="M18.841 1.319c-1.612-1.182-2.393-1.319-2.841-1.319h-11.5c-1.378 0-2.5 1.121-2.5 2.5v23c0 1.207 0.86 2.217 2 2.45v-25.45c0-0.271 0.229-0.5 0.5-0.5h15.215c-0.301-0.248-0.595-0.477-0.873-0.681z"></path>
</symbol>
</defs>
</svg>
